<?xml version="1.0" standalone="no"?><!DOCTYPE svg PUBLIC "-//W3C//DTD SVG 1.1//EN" "http://www.w3.org/Graphics/SVG/1.1/DTD/svg11.dtd"><svg t="1517991700506" class="icon" style="" viewBox="0 0 1024 1024" version="1.1" xmlns="http://www.w3.org/2000/svg" p-id="1644" xmlns:xlink="http://www.w3.org/1999/xlink" width="200" height="200"><defs><style type="text/css"></style></defs><path d="M702.4 633.1h-0.8c-5.5-0.4-9.6-5.2-9.2-10.7 1-14-1.5-52.9-18.1-100.4-12.2-34.9-29.9-69.3-52.6-102.3-25.4-36.9-57.2-72.1-94.8-105-3 17.3-9.5 45.1-23.2 77.4-13.3 31.3-30.8 60.4-51.8 86.5-26.3 32.6-58.4 60.6-95.4 83.1-4.7 2.9-10.9 1.4-13.7-3.3s-1.4-10.9 3.3-13.7c34.8-21.2 65.1-47.5 89.9-78.2 19.9-24.6 36.4-52 49-81.5 17.3-40.4 23.6-76.8 24.5-90.4 0.3-3.7 2.6-7 6-8.5s7.4-0.9 10.3 1.5c45.3 37.5 83.2 78.4 112.8 121.6 23.8 34.7 42.3 70.8 54.9 107.5 21.8 63 18.9 105.5 18.8 107.3-0.3 5.1-4.7 9.1-9.9 9.1z" fill="#543630" p-id="1645"></path><path d="M521.9 286.4s269.4 166.5 314.5-5.2c32.4-147.3-210.5-143.5-314.5 5.2z" fill="#55B765" p-id="1646"></path><path d="M731.7 369c-33.6 0-73.7-9.1-119.6-27.1-53-20.8-93.7-45.9-95.4-46.9-2.3-1.4-4-3.8-4.5-6.5-0.6-2.7 0-5.5 1.6-7.8 33.1-47.4 82.6-84.2 139.3-103.7 52.8-18.2 104.7-19.1 142.5-2.5 43.2 19 61.7 58.7 50.7 108.9 0 0.1-0.1 0.3-0.1 0.4-10 37.9-31.1 63.5-62.7 76.2-15.2 6-32.4 9-51.8 9z m-195.2-85.6c15 8.5 46.3 25.5 83.2 40 46.4 18.2 111.1 36.1 156.3 18 25.7-10.3 42.3-30.7 50.7-62.5 11.3-52-15.1-75.5-39.2-86.1-32.8-14.4-80.6-13.2-128 3.1-49.2 16.9-92.5 47.8-123 87.5z" fill="#543630" p-id="1647"></path><path d="M522.2 289.3S280.5 65.6 212.9 225.5C161.2 364.3 400 413.6 522.2 289.3z" fill="#55B765" p-id="1648"></path><path d="M347.1 370.5c-39.6 0-76.3-9.3-103.8-26.9-43.7-27.8-58.2-72.2-39.8-121.6 0-0.1 0.1-0.3 0.2-0.4 14.4-34.1 37.4-54.7 68.3-61.4 42.8-9.2 99.2 8.7 167.8 53.2 50.1 32.5 87.6 67 89.1 68.5 2 1.8 3.1 4.4 3.2 7.1 0.1 2.7-1 5.3-2.9 7.2-38.1 38.8-90.4 64.3-147.3 71.9-11.7 1.7-23.4 2.4-34.8 2.4zM222.2 229.2c-15 40.3-3.6 75 31.8 97.6 61.1 38.9 177.9 32.3 253.4-37.2-13.5-11.8-43.2-36.5-78.8-59.5-43.9-28.5-106-60.3-152.5-50.3-24.4 5.3-42.1 21.4-53.9 49.4z" fill="#543630" p-id="1649"></path><path d="M474.9 298.6c-41.9 0-102.4-4.8-145.8-28.5-4.8-2.6-6.6-8.7-4-13.6 2.6-4.8 8.7-6.6 13.6-4 61.5 33.5 166.2 25.4 180.8 24.1 13.3-6.4 96.3-43.7 186.3-31.2 5.5 0.8 9.3 5.8 8.5 11.3s-5.8 9.3-11.3 8.5c-89.8-12.5-175.5 29.7-176.4 30.2-1.1 0.5-2.2 0.9-3.4 1-1.9 0.2-21.3 2.2-48.3 2.2z" fill="#543630" p-id="1650"></path><path d="M299.1 673.4m-165.1 0a165.1 165.1 0 1 0 330.2 0 165.1 165.1 0 1 0-330.2 0Z" fill="#FF5F67" p-id="1651"></path><path d="M299.1 848.5C202.6 848.5 124 770 124 673.4s78.5-175.1 175.1-175.1 175.1 78.5 175.1 175.1-78.6 175.1-175.1 175.1z m0-330.2c-85.5 0-155.1 69.6-155.1 155.1s69.6 155.1 155.1 155.1 155.1-69.6 155.1-155.1-69.6-155.1-155.1-155.1z" fill="#543630" p-id="1652"></path><path d="M715.4 713.5m-168.6 0a168.6 168.6 0 1 0 337.2 0 168.6 168.6 0 1 0-337.2 0Z" fill="#FF5F67" p-id="1653"></path><path d="M715.4 892.1c-98.5 0-178.6-80.1-178.6-178.6s80.1-178.6 178.6-178.6S894 615 894 713.5s-80.1 178.6-178.6 178.6z m0-337.3c-87.5 0-158.6 71.2-158.6 158.6 0 87.5 71.2 158.6 158.6 158.6 87.5 0 158.6-71.2 158.6-158.6s-71.2-158.6-158.6-158.6z" fill="#543630" p-id="1654"></path><path d="M205.8 670.3h-0.6c-8.3-0.3-14.7-7.3-14.4-15.6 1.9-44.4 24.9-67.2 43.8-78.5 19.8-11.8 38.7-13.5 40.8-13.7 8.3-0.6 15.4 5.6 16 13.9 0.6 8.2-5.6 15.4-13.8 16-0.4 0-14.6 1.4-28.6 10-17.8 11-27.3 29-28.4 53.5-0.2 8.1-6.8 14.4-14.8 14.4z" fill="#FFFFFF" p-id="1655"></path><path d="M622.7 730.4c-0.2 0-0.4 0.1-0.6 0.1-8.1 1.7-16-3.6-17.7-11.7-8.8-43.6 8.1-71.2 23.8-86.7 16.4-16.2 34.4-22.4 36.3-23.1 7.9-2.6 16.3 1.8 18.9 9.7 2.5 7.8-1.8 16.3-9.6 18.8-0.4 0.1-13.8 4.8-25.4 16.5-14.7 14.9-19.6 34.7-14.8 58.7 1.7 8.1-3.2 15.8-10.9 17.7z" fill="#FFFFFF" p-id="1656"></path></svg>